<?xml version="1.0" encoding="UTF-8" standalone="no"?><!DOCTYPE svg PUBLIC "-//W3C//DTD SVG 1.1//EN" "http://www.w3.org/Graphics/SVG/1.1/DTD/svg11.dtd"><svg width="100%" height="100%" viewBox="0 0 48 50" version="1.1" xmlns="http://www.w3.org/2000/svg" xmlns:xlink="http://www.w3.org/1999/xlink" xml:space="preserve" xmlns:serif="http://www.serif.com/" style="fill-rule:evenodd;clip-rule:evenodd;stroke-linejoin:round;stroke-miterlimit:2;"><g><path d="M19.827,2.167c-2.998,0.76 -6.957,12.268 -6.957,12.268c0,0 -10.598,5.98 -10.802,9.066c-0.204,3.087 9.518,10.407 9.518,10.407c-0,0 2.412,11.928 5.284,13.076c2.873,1.147 12.839,-5.836 12.839,-5.836c-0,-0 12.09,1.392 14.068,-0.986c1.979,-2.377 -1.583,-14.013 -1.583,-14.013c0,-0 5.06,-11.068 3.411,-13.685c-1.65,-2.616 -13.817,-2.825 -13.817,-2.825c-0,0 -8.963,-8.232 -11.961,-7.472Zm4.266,25.776l-0.262,0.168l0.103,0.363c0.029,0.133 0.057,0.266 0.086,0.399l0.023,0.154l0.123,-0.096l0.137,-0.093l-0.08,-0.322c-0.026,-0.154 -0.052,-0.307 -0.079,-0.461l-0.013,-0.14l-0.038,0.028Zm4.165,-1.015c0.101,0.264 0.184,0.535 0.245,0.812l0.259,0.026l0.154,0.026l-0.053,-0.147c-0.038,-0.13 -0.076,-0.261 -0.114,-0.392l-0.063,-0.279l-0.383,-0.038l-0.045,-0.008Zm-5.986,-2.716c-0.284,0.213 -0.588,0.402 -0.91,0.562l0.129,0.088l0.027,0.02c0.302,-0.198 0.62,-0.369 0.951,-0.513l-0.197,-0.157Zm5.982,-1.486l-0.125,0.278c0.333,-0.022 0.668,-0.018 1,0.014l0.046,-0.104l0.072,-0.139c-0.334,0.01 -0.666,-0.007 -0.993,-0.049Zm-3.675,-1.815c-0.057,0.191 -0.122,0.378 -0.194,0.562c0.17,0.141 0.332,0.291 0.485,0.45c0.059,-0.192 0.126,-0.381 0.202,-0.566c-0.172,-0.138 -0.338,-0.287 -0.493,-0.446Z" style="fill:#fff;"/><path d="M19.606,7.797c0.125,-0.675 0.631,-1.216 1.297,-1.385c0.666,-0.168 1.369,0.066 1.8,0.6l6.893,8.535l10.875,-1.438c0.681,-0.089 1.352,0.225 1.718,0.806c0.366,0.581 0.361,1.322 -0.014,1.898l-5.987,9.192l4.728,9.899c0.296,0.62 0.204,1.355 -0.236,1.883c-0.439,0.528 -1.146,0.752 -1.809,0.573l-10.592,-2.853l-7.954,7.555c-0.498,0.473 -1.226,0.612 -1.863,0.358c-0.638,-0.255 -1.069,-0.858 -1.104,-1.544l-0.56,-10.955l-9.643,-5.23c-0.604,-0.328 -0.962,-0.977 -0.916,-1.662c0.045,-0.685 0.485,-1.281 1.126,-1.527l10.247,-3.917l1.994,-10.788Zm5.362,23.346c0.706,0.074 1.437,0.027 2.165,-0.158c0.679,-0.172 1.304,-0.451 1.861,-0.814l-0.623,3.155c-0.061,0.307 -0.295,0.55 -0.599,0.623c-0.304,0.073 -0.623,-0.037 -0.817,-0.283l-1.987,-2.523Zm6.741,-7.257l2.433,1.358c0.273,0.152 0.433,0.45 0.408,0.762c-0.024,0.312 -0.228,0.581 -0.521,0.689l-2.881,1.061c0.583,-1.162 0.806,-2.512 0.561,-3.87Zm-12.026,2.9c0.401,1.321 1.212,2.417 2.257,3.184l-3.039,0.364c-0.311,0.037 -0.615,-0.11 -0.778,-0.377c-0.164,-0.267 -0.157,-0.604 0.017,-0.864l1.543,-2.307Zm9.999,-6.477c-0.887,-0.772 -1.984,-1.284 -3.16,-1.46l1.717,-1.592c0.23,-0.213 0.562,-0.272 0.851,-0.153c0.29,0.12 0.483,0.397 0.495,0.71l0.097,2.495Zm-7.668,-0.378c-0.968,0.691 -1.71,1.644 -2.15,2.73l-1.044,-2.258c-0.132,-0.284 -0.086,-0.618 0.117,-0.856c0.204,-0.238 0.527,-0.336 0.828,-0.251l2.249,0.635Z" style="fill:url(#_Linear1);"/></g><defs><linearGradient id="_Linear1" x1="0" y1="0" x2="1" y2="0" gradientUnits="userSpaceOnUse" gradientTransform="matrix(45.1315,29.4266,-29.4266,45.1315,6.39177,10.0912)"><stop offset="0" style="stop-color:#f05296;stop-opacity:1"/><stop offset="1" style="stop-color:#ff85df;stop-opacity:1"/></linearGradient></defs></svg>