<?xml version="1.0" encoding="UTF-8" standalone="no"?>
<!DOCTYPE svg PUBLIC "-//W3C//DTD SVG 1.1//EN" "http://www.w3.org/Graphics/SVG/1.1/DTD/svg11.dtd">
<svg width="100%" height="100%" viewBox="0 0 6 10" version="1.1" xmlns="http://www.w3.org/2000/svg" xmlns:xlink="http://www.w3.org/1999/xlink" xml:space="preserve" xmlns:serif="http://www.serif.com/" style="fill-rule:evenodd;clip-rule:evenodd;stroke-linejoin:round;stroke-miterlimit:2;">
    <g transform="matrix(0.503128,-0.13515,0.13515,0.503128,-89.427,-23.0027)">
        <path d="M158.09,88.376C161.031,88.376 163.419,90.763 163.419,93.705C163.419,99.461 158.09,107.462 158.09,107.462C158.09,107.462 152.761,99.381 152.761,93.705C152.761,90.763 155.149,88.376 158.09,88.376ZM158.09,90.849C159.693,90.849 160.994,92.15 160.994,93.752C160.994,95.355 159.693,96.656 158.09,96.656C156.488,96.656 155.187,95.355 155.187,93.752C155.187,92.15 156.488,90.849 158.09,90.849Z" />
    </g>
</svg>