<?xml version="1.0" encoding="UTF-8" standalone="no"?>
<!DOCTYPE svg PUBLIC "-//W3C//DTD SVG 1.1//EN" "http://www.w3.org/Graphics/SVG/1.1/DTD/svg11.dtd">
<svg width="100%" height="100%" viewBox="0 0 105 56" version="1.1" xmlns="http://www.w3.org/2000/svg" xmlns:xlink="http://www.w3.org/1999/xlink" xml:space="preserve" xmlns:serif="http://www.serif.com/" style="fill-rule:evenodd;clip-rule:evenodd;stroke-linejoin:round;stroke-miterlimit:2;">
    <g transform="matrix(0.58456,0.0707535,-0.0337847,0.997993,5.37324,-103.614)">
        <path d="M0,159.044C0,159.044 3.651,158.432 6.908,157.886C9.834,157.396 12.294,156.114 13.503,154.45C14.651,152.436 16.358,149.89 17.556,149.076C19.129,148.005 26.692,144.156 30.217,142.378C31.422,141.76 32.408,141.006 33.106,140.169C34.348,138.686 36.384,136.243 37.774,134.575C38.024,134.275 38.515,134.063 39.063,134.018C39.612,133.972 40.134,134.101 40.436,134.355C41.161,134.997 42.307,135.563 44.026,135.468C44.956,135.416 45.55,134.991 45.919,134.381C47.929,131.181 53.724,129.259 59.089,130.014C61.825,130.263 64.176,130.509 65.12,130.711C68.016,131.332 71.738,136.088 84.146,127.816C96.555,119.544 111.445,122.232 114.753,121.612C118.062,120.992 133.159,119.697 133.986,116.208C134.299,114.891 155.777,120.017 157.472,119.517C196.053,108.148 175.242,91.398 175.242,91.398L-3.178,104.048L0,159.044Z" style="fill:rgb(141,216,236);fill-opacity:0.2;"/>
    </g>
</svg>
